<svg version="1.1" id="Layer_1" xmlns="http://www.w3.org/2000/svg" xmlns:xlink="http://www.w3.org/1999/xlink" x="0px" y="-20px"
	 width="75px" height="65px" viewBox="0 0 190 230" enable-background="new 0 0 200 200" xml:space="preserve">
<path fill="#FDFDFE" opacity="1.000000" stroke="none" 
	d="
M201.000000,76.000000 
	C201.000000,117.974052 201.000000,159.448105 201.000000,200.961075 
	C134.400986,200.961075 67.801941,200.961075 1.101447,200.961075 
	C1.101447,134.442780 1.101447,67.885368 1.101447,1.163973 
	C67.666336,1.163973 134.333130,1.163973 201.000000,1.163973 
	C201.000000,25.864462 201.000000,50.682232 201.000000,76.000000 
M60.186035,98.313484 
	C59.341198,95.081787 58.496361,91.850098 57.651524,88.618401 
	C56.945457,88.599037 56.239391,88.579666 55.533325,88.560303 
	C55.028095,91.039215 54.522861,93.518127 53.330067,96.209412 
	C52.936462,97.217636 52.542858,98.225868 52.045971,99.962807 
	C50.977898,103.516151 49.909824,107.069496 48.721886,111.021606 
	C53.314999,110.762489 51.287449,104.846527 56.505383,104.786484 
	C61.801514,104.725540 60.659119,110.064705 65.175163,110.364159 
	C63.486923,106.528694 61.798691,102.693237 60.025578,98.890244 
	C60.025578,98.890244 60.088055,98.956238 60.186035,98.313484 
M129.523636,94.534698 
	C129.490921,95.028191 129.458206,95.521683 129.500397,96.010559 
	C129.500397,96.010559 129.538666,95.946007 129.576416,95.003906 
	C125.416710,95.848129 123.912102,99.058281 124.950905,104.872612 
	C125.702606,109.079941 128.591721,110.995201 133.803329,110.193085 
	C139.708893,105.125427 138.742249,96.529633 131.391800,93.881775 
	C131.030975,94.027267 130.670166,94.172760 129.523636,94.534698 
M145.842300,96.601646 
	C149.734848,95.952225 149.135162,98.848190 149.275253,101.045303 
	C149.486893,104.364655 149.577148,107.691742 149.718979,111.015541 
	C150.354233,110.967888 150.989471,110.920235 151.624725,110.872574 
	C151.624725,106.226517 151.995529,101.530067 151.375671,96.968239 
	C151.211502,95.760170 148.061417,94.805656 146.156601,94.052948 
	C145.256104,93.697113 144.058929,94.092064 142.148453,93.893982 
	C139.869888,99.612297 141.067459,105.262878 142.418259,110.967415 
	C143.464600,109.359581 143.593826,107.708862 143.789749,106.066101 
	C144.155655,102.998337 144.560318,99.935181 145.842300,96.601646 
M14.149961,104.273026 
	C13.647511,104.507469 13.145061,104.741905 12.083874,105.340698 
	C11.437926,107.245415 10.791979,109.150131 9.751903,111.618332 
	C9.894040,113.388344 10.036178,115.158348 10.123837,117.663826 
	C11.866728,120.824654 13.609618,123.985481 15.816019,127.986908 
	C21.683235,116.511337 21.307337,112.783310 14.149961,104.273026 
M21.012224,69.944893 
	C28.443846,66.216621 29.975414,59.970085 28.591883,52.415855 
	C20.547699,53.811230 15.209950,61.752987 16.566355,70.590141 
	C16.942390,71.366936 17.318424,72.143730 17.880421,73.304665 
	C18.963699,71.926361 19.669275,71.028625 21.012224,69.944893 
M184.265198,74.166031 
	C184.526672,72.043007 184.929169,69.926277 185.024292,67.795830 
	C185.367676,60.105125 180.563873,53.981575 173.204056,52.556370 
	C171.621231,59.917004 173.423660,65.782928 180.190887,69.909302 
	C182.019989,71.024612 183.130997,73.317566 184.185638,75.784210 
	C183.929428,77.083733 183.919128,78.497551 183.376907,79.664139 
	C179.970673,86.992599 182.625641,92.774208 187.804001,97.994324 
	C194.738602,91.213524 192.958893,78.995331 184.265198,74.166031 
M178.776184,147.314926 
	C185.659927,140.845688 187.266647,135.037613 183.875778,129.210999 
	C176.565079,134.018936 170.205551,139.393448 173.403290,150.035522 
	C175.004852,149.274338 176.607864,148.512466 178.776184,147.314926 
M165.455444,35.056725 
	C162.163864,31.813246 158.402267,29.897245 153.612167,30.506119 
	C155.724319,39.509453 159.282074,46.739704 169.860352,47.307648 
	C170.748291,42.691059 168.659454,39.049046 165.455444,35.056725 
M117.990036,19.819769 
	C120.267296,19.009214 122.544563,18.198660 124.851082,17.377691 
	C120.490448,8.939666 109.231453,6.983320 102.317123,13.353370 
	C107.097122,16.096796 110.639641,21.256426 117.990036,19.819769 
M76.863884,184.594757 
	C81.017693,192.593185 93.505020,194.675613 99.240128,188.455353 
	C92.833740,182.663635 85.865341,179.408630 76.863884,184.594757 
M9.940278,86.991539 
	C9.533316,91.249107 10.177442,95.089127 13.784324,97.763245 
	C21.742359,90.998459 20.681946,83.346710 15.523651,74.694557 
	C13.688606,78.537727 11.853562,82.380890 9.940278,86.991539 
M32.006462,43.649334 
	C32.086964,44.875626 32.167465,46.101917 32.234329,47.120491 
	C43.306885,46.793915 46.004532,39.135189 48.023975,30.662777 
	C39.391331,31.508495 34.804153,35.071701 32.006462,43.649334 
M45.435352,163.202591 
	C43.154305,156.999954 37.709145,155.635788 32.146854,154.330276 
	C30.558584,163.509583 39.458164,172.512634 48.037689,170.415192 
	C47.256493,168.239044 46.480015,166.076050 45.435352,163.202591 
M184.112823,108.647972 
	C179.340576,114.722160 183.380829,120.534485 184.494308,126.518806 
	C193.012955,121.334251 194.593155,109.479935 187.594971,104.170959 
	C186.575653,105.465515 185.556091,106.760368 184.112823,108.647972 
M120.780640,182.797455 
	C113.033630,179.116791 108.215660,184.853058 102.546822,188.275482 
	C110.072472,194.277969 120.515892,192.353210 124.712914,184.111206 
	C123.613129,183.742981 122.555374,183.388824 120.780640,182.797455 
M28.351723,139.573898 
	C24.994030,135.971146 21.636339,132.368408 17.913338,128.373688 
	C14.321173,138.085007 20.729214,149.336029 29.052164,149.224609 
	C28.902473,146.270447 28.752562,143.311951 28.351723,139.573898 
M68.524834,23.001154 
	C69.306419,21.787416 70.088013,20.573679 70.897293,19.316933 
	C61.775532,15.490191 52.151196,20.206358 50.417046,29.096155 
	C63.344231,29.253757 63.344231,29.253757 68.524834,23.001154 
M62.684322,173.546036 
	C58.684273,173.082703 54.684223,172.619354 50.429653,172.126526 
	C53.824337,182.043716 62.635590,186.276184 71.345161,181.953979 
	C68.582130,179.136490 65.986229,176.489441 62.684322,173.546036 
M162.768234,168.377914 
	C167.577347,165.016632 170.228027,160.612274 169.741623,154.494537 
	C159.787766,155.471680 155.547821,161.606705 153.992386,171.421219 
	C156.971954,170.445831 159.547180,169.602829 162.768234,168.377914 
M134.905792,25.655571 
	C140.209290,27.316807 145.512802,28.978043 151.756378,30.933744 
	C148.266647,19.826750 138.416458,15.103049 130.894424,19.767115 
	C132.073456,21.539120 133.252945,23.311840 134.905792,25.655571 
M131.379349,181.247925 
	C131.346237,181.829117 131.313126,182.410294 131.280014,182.991486 
	C135.429611,182.779938 139.803116,183.310928 143.665268,182.146240 
	C147.463440,181.000824 150.543198,177.984207 151.138931,173.426575 
	C142.972000,172.236465 135.904770,172.604538 131.379349,181.247925 
M87.303329,20.103098 
	C91.302368,18.090374 95.301407,16.077650 99.761772,13.832739 
	C91.188644,7.691996 81.618195,9.423408 76.948997,17.583117 
	C80.208252,18.449718 83.336601,19.281513 87.303329,20.103098 
M87.746742,93.922417 
	C86.190117,95.230103 84.633492,96.537788 83.076859,97.845474 
	C83.381958,98.050743 83.687065,98.256012 83.992165,98.461281 
	C85.955902,97.808167 87.919640,97.155052 89.883385,96.501938 
	C90.280548,97.763573 90.677711,99.025200 91.118675,100.425964 
	C86.747429,101.367943 81.895355,101.408310 83.010269,107.191238 
	C84.376762,114.279037 89.461342,108.835815 93.052238,110.253242 
	C93.052238,106.225243 92.799522,102.742264 93.121216,99.313171 
	C93.463158,95.668274 92.043022,93.995369 87.746742,93.922417 
M103.162254,103.689590 
	C103.907074,104.913635 104.651894,106.137680 105.396713,107.361725 
	C102.914490,107.137360 100.432259,106.913002 97.950035,106.688644 
	C98.982872,108.498718 100.838112,110.614166 102.788086,110.705414 
	C104.543159,110.787544 107.726791,108.806343 107.886833,107.452324 
	C108.096558,105.678040 106.049110,103.561028 104.772469,101.730995 
	C104.363495,101.144745 103.026184,101.199051 102.630745,100.611961 
	C101.936218,99.580818 101.640411,98.281136 101.177605,97.093918 
	C102.478050,97.155037 103.841843,96.997871 105.057625,97.350716 
	C105.930931,97.604172 106.606537,98.538841 107.370346,99.169617 
	C107.806229,98.677475 108.242119,98.185326 108.678009,97.693184 
	C107.025719,96.408531 105.412910,94.169937 103.710358,94.099464 
	C101.898903,94.024490 99.046394,95.579872 98.341637,97.172592 
	C96.863052,100.514160 99.598480,102.195824 103.162254,103.689590 
M111.781525,107.480118 
	C112.132530,108.037445 112.380127,108.954346 112.852356,109.090164 
	C114.956322,109.695290 117.222595,110.661690 119.233414,110.324387 
	C120.476585,110.115852 122.473877,107.463066 122.180977,106.502930 
	C121.597366,104.589844 119.734207,103.025566 118.259773,101.447891 
	C117.731255,100.882370 116.556381,100.877396 116.111183,100.288162 
	C115.507317,99.488953 115.321335,98.374001 114.956116,97.394485 
	C116.112984,97.166229 117.396461,96.519119 118.393242,96.820435 
	C119.526535,97.163017 120.403618,98.353149 121.392067,99.174866 
	C121.829201,98.640160 122.266327,98.105446 122.703453,97.570732 
	C120.990295,96.322250 119.297295,94.124847 117.558411,94.087929 
	C115.762611,94.049797 112.861862,95.802841 112.411949,97.345932 
	C111.996567,98.770615 114.170120,100.966675 115.256111,102.791626 
	C115.391853,103.019737 115.950493,102.970497 116.141785,103.195480 
	C117.273125,104.526192 119.545120,106.691292 119.254738,107.128426 
	C117.597519,109.623123 115.790390,108.660843 114.118416,106.656357 
	C113.810493,106.287193 112.489265,106.763237 111.781525,107.480118 
M70.358185,106.092278 
	C69.053528,100.791954 73.068832,94.968582 69.164597,89.582382 
	C67.795982,91.636070 66.709068,93.267052 66.029503,94.286781 
	C66.707275,96.568596 67.542038,98.546944 67.836967,100.602737 
	C68.139984,102.714897 67.771790,104.915138 67.956650,107.054428 
	C68.223259,110.139709 69.345673,110.743446 72.795143,109.856346 
	C71.969292,108.863235 71.181213,107.915543 70.358185,106.092278 
M78.430779,88.111649 
	C77.661842,88.781227 76.243477,89.433678 76.225288,90.123070 
	C76.058777,96.432571 76.094086,102.749184 76.200279,109.061539 
	C76.211906,109.752350 77.039284,110.429443 77.488297,111.112900 
	C77.954742,111.042702 78.421181,110.972511 78.887627,110.902321 
	C78.887627,103.576630 78.887627,96.250938 78.430779,88.111649 
z"/>
<path fill="#4F538D" opacity="1.000000" stroke="none" 
	d="
M178.493530,147.532761 
	C176.607864,148.512466 175.004852,149.274338 173.403290,150.035522 
	C170.205551,139.393448 176.565079,134.018936 183.875778,129.210999 
	C187.266647,135.037613 185.659927,140.845688 178.493530,147.532761 
z"/>
<path fill="#4F538D" opacity="1.000000" stroke="none" 
	d="
M184.499969,75.097534 
	C192.958893,78.995331 194.738602,91.213524 187.804001,97.994324 
	C182.625641,92.774208 179.970673,86.992599 183.376907,79.664139 
	C183.919128,78.497551 183.929428,77.083733 184.356415,75.421097 
	C184.527176,75.057976 184.499969,75.097534 184.499969,75.097534 
z"/>
<path fill="#50538D" opacity="1.000000" stroke="none" 
	d="
M165.690323,35.334332 
	C168.659454,39.049046 170.748291,42.691059 169.860352,47.307648 
	C159.282074,46.739704 155.724319,39.509453 153.612167,30.506119 
	C158.402267,29.897245 162.163864,31.813246 165.690323,35.334332 
z"/>
<path fill="#4E528D" opacity="1.000000" stroke="none" 
	d="
M117.580582,19.908428 
	C110.639641,21.256426 107.097122,16.096796 102.317123,13.353370 
	C109.231453,6.983320 120.490448,8.939666 124.851082,17.377691 
	C122.544563,18.198660 120.267296,19.009214 117.580582,19.908428 
z"/>
<path fill="#50548E" opacity="1.000000" stroke="none" 
	d="
M77.120354,184.390732 
	C85.865341,179.408630 92.833740,182.663635 99.240128,188.455353 
	C93.505020,194.675613 81.017693,192.593185 77.120354,184.390732 
z"/>
<path fill="#51558E" opacity="1.000000" stroke="none" 
	d="
M184.382584,74.631783 
	C184.499969,75.097534 184.527176,75.057976 184.549393,75.063980 
	C183.130997,73.317566 182.019989,71.024612 180.190887,69.909302 
	C173.423660,65.782928 171.621231,59.917004 173.197784,52.558937 
	C180.563873,53.981575 185.367676,60.105125 185.024292,67.795830 
	C184.929169,69.926277 184.526672,72.043007 184.382584,74.631783 
z"/>
<path fill="#52558F" opacity="1.000000" stroke="none" 
	d="
M9.979399,86.607803 
	C11.853562,82.380890 13.688606,78.537727 15.523651,74.694557 
	C20.681946,83.346710 21.742359,90.998459 13.784324,97.763245 
	C10.177442,95.089127 9.533316,91.249107 9.979399,86.607803 
z"/>
<path fill="#4F538D" opacity="1.000000" stroke="none" 
	d="
M32.070099,43.261154 
	C34.804153,35.071701 39.391331,31.508495 48.023975,30.662777 
	C46.004532,39.135189 43.306885,46.793915 32.234329,47.120491 
	C32.167465,46.101917 32.086964,44.875626 32.070099,43.261154 
z"/>
<path fill="#4F528D" opacity="1.000000" stroke="none" 
	d="
M45.569443,163.557831 
	C46.480015,166.076050 47.256493,168.239044 48.037689,170.415192 
	C39.458164,172.512634 30.558584,163.509583 32.146854,154.330276 
	C37.709145,155.635788 43.154305,156.999954 45.569443,163.557831 
z"/>
<path fill="#50548E" opacity="1.000000" stroke="none" 
	d="
M184.324677,108.351601 
	C185.556091,106.760368 186.575653,105.465515 187.594971,104.170959 
	C194.593155,109.479935 193.012955,121.334251 184.494308,126.518806 
	C183.380829,120.534485 179.340576,114.722160 184.324677,108.351601 
z"/>
<path fill="#51558E" opacity="1.000000" stroke="none" 
	d="
M121.139130,182.916061 
	C122.555374,183.388824 123.613129,183.742981 124.712914,184.111206 
	C120.515892,192.353210 110.072472,194.277969 102.546822,188.275482 
	C108.215660,184.853058 113.033630,179.116791 121.139130,182.916061 
z"/>
<path fill="#51558E" opacity="1.000000" stroke="none" 
	d="
M28.477186,139.963684 
	C28.752562,143.311951 28.902473,146.270447 29.052164,149.224609 
	C20.729214,149.336029 14.321173,138.085007 17.913338,128.373688 
	C21.636339,132.368408 24.994030,135.971146 28.477186,139.963684 
z"/>
<path fill="#4E528C" opacity="1.000000" stroke="none" 
	d="
M68.312576,23.295895 
	C63.344231,29.253757 63.344231,29.253757 50.417046,29.096155 
	C52.151196,20.206358 61.775532,15.490191 70.897293,19.316933 
	C70.088013,20.573679 69.306419,21.787416 68.312576,23.295895 
z"/>
<path fill="#51548E" opacity="1.000000" stroke="none" 
	d="
M63.037323,173.694214 
	C65.986229,176.489441 68.582130,179.136490 71.345161,181.953979 
	C62.635590,186.276184 53.824337,182.043716 50.429653,172.126526 
	C54.684223,172.619354 58.684273,173.082703 63.037323,173.694214 
z"/>
<path fill="#51548E" opacity="1.000000" stroke="none" 
	d="
M162.445312,168.568863 
	C159.547180,169.602829 156.971954,170.445831 153.992386,171.421219 
	C155.547821,161.606705 159.787766,155.471680 169.741623,154.494537 
	C170.228027,160.612274 167.577347,165.016632 162.445312,168.568863 
z"/>
<path fill="#4F538D" opacity="1.000000" stroke="none" 
	d="
M134.669128,25.370066 
	C133.252945,23.311840 132.073456,21.539120 130.894424,19.767115 
	C138.416458,15.103049 148.266647,19.826750 151.756378,30.933744 
	C145.512802,28.978043 140.209290,27.316807 134.669128,25.370066 
z"/>
<path fill="#51548E" opacity="1.000000" stroke="none" 
	d="
M131.621033,180.946686 
	C135.904770,172.604538 142.972000,172.236465 151.138931,173.426575 
	C150.543198,177.984207 147.463440,181.000824 143.665268,182.146240 
	C139.803116,183.310928 135.429611,182.779938 131.280014,182.991486 
	C131.313126,182.410294 131.346237,181.829117 131.621033,180.946686 
z"/>
<path fill="#51548E" opacity="1.000000" stroke="none" 
	d="
M16.697342,69.974144 
	C15.209950,61.752987 20.547699,53.811230 28.591883,52.415855 
	C29.975414,59.970085 28.443846,66.216621 20.324755,70.003342 
	C18.657305,70.032578 17.677322,70.003357 16.697342,69.974144 
z"/>
<path fill="#51548E" opacity="1.000000" stroke="none" 
	d="
M86.884140,20.108204 
	C83.336601,19.281513 80.208252,18.449718 76.948997,17.583117 
	C81.618195,9.423408 91.188644,7.691996 99.761772,13.832739 
	C95.301407,16.077650 91.302368,18.090374 86.884140,20.108204 
z"/>
<path fill="#4F538D" opacity="1.000000" stroke="none" 
	d="
M10.146030,111.054848 
	C10.791979,109.150131 11.437926,107.245415 12.816593,105.159515 
	C13.850141,104.964386 14.150970,104.950439 14.451801,104.936493 
	C21.307337,112.783310 21.683235,116.511337 15.816019,127.986908 
	C13.609618,123.985481 11.866728,120.824654 10.391826,117.038795 
	C10.488552,114.627457 10.317291,112.841156 10.146030,111.054848 
z"/>
<path fill="#171717" opacity="1.000000" stroke="none" 
	d="
M88.130630,93.890228 
	C92.043022,93.995369 93.463158,95.668274 93.121216,99.313171 
	C92.799522,102.742264 93.052238,106.225243 93.052238,110.253242 
	C89.461342,108.835815 84.376762,114.279037 83.010269,107.191238 
	C81.895355,101.408310 86.747429,101.367943 91.118675,100.425964 
	C90.677711,99.025200 90.280548,97.763573 89.883385,96.501938 
	C87.919640,97.155052 85.955902,97.808167 83.992165,98.461281 
	C83.687065,98.256012 83.381958,98.050743 83.076859,97.845474 
	C84.633492,96.537788 86.190117,95.230103 88.130630,93.890228 
z"/>
<path fill="#313131" opacity="1.000000" stroke="none" 
	d="
M102.801376,103.487885 
	C99.598480,102.195824 96.863052,100.514160 98.341637,97.172592 
	C99.046394,95.579872 101.898903,94.024490 103.710358,94.099464 
	C105.412910,94.169937 107.025719,96.408531 108.678009,97.693184 
	C108.242119,98.185326 107.806229,98.677475 107.370346,99.169617 
	C106.606537,98.538841 105.930931,97.604172 105.057625,97.350716 
	C103.841843,96.997871 102.478050,97.155037 101.177605,97.093918 
	C101.640411,98.281136 101.936218,99.580818 102.630745,100.611961 
	C103.026184,101.199051 104.363495,101.144745 104.772469,101.730995 
	C106.049110,103.561028 108.096558,105.678040 107.886833,107.452324 
	C107.726791,108.806343 104.543159,110.787544 102.788086,110.705414 
	C100.838112,110.614166 98.982872,108.498718 97.950035,106.688644 
	C100.432259,106.913002 102.914490,107.137360 105.396713,107.361725 
	C104.651894,106.137680 103.907074,104.913635 102.801376,103.487885 
z"/>
<path fill="#313131" opacity="1.000000" stroke="none" 
	d="
M111.708633,107.164642 
	C112.489265,106.763237 113.810493,106.287193 114.118416,106.656357 
	C115.790390,108.660843 117.597519,109.623123 119.254738,107.128426 
	C119.545120,106.691292 117.273125,104.526192 116.141785,103.195480 
	C115.950493,102.970497 115.391853,103.019737 115.256111,102.791626 
	C114.170120,100.966675 111.996567,98.770615 112.411949,97.345932 
	C112.861862,95.802841 115.762611,94.049797 117.558411,94.087929 
	C119.297295,94.124847 120.990295,96.322250 122.703453,97.570732 
	C122.266327,98.105446 121.829201,98.640160 121.392067,99.174866 
	C120.403618,98.353149 119.526535,97.163017 118.393242,96.820435 
	C117.396461,96.519119 116.112984,97.166229 114.956116,97.394485 
	C115.321335,98.374001 115.507317,99.488953 116.111183,100.288162 
	C116.556381,100.877396 117.731255,100.882370 118.259773,101.447891 
	C119.734207,103.025566 121.597366,104.589844 122.180977,106.502930 
	C122.473877,107.463066 120.476585,110.115852 119.233414,110.324387 
	C117.222595,110.661690 114.956322,109.695290 112.852356,109.090164 
	C112.380127,108.954346 112.132530,108.037445 111.708633,107.164642 
z"/>
<path fill="#EDEDED" opacity="1.000000" stroke="none" 
	d="
M129.538666,95.946007 
	C129.538666,95.946007 129.500397,96.010559 129.881760,96.087860 
	C135.689590,97.229988 136.915710,103.098366 132.494431,108.655807 
	C125.988564,107.226357 124.782639,101.279778 129.538666,95.946007 
z"/>
<path fill="#2B2B2B" opacity="1.000000" stroke="none" 
	d="
M60.110455,98.857773 
	C61.798691,102.693237 63.486923,106.528694 65.175163,110.364159 
	C60.659119,110.064705 61.801514,104.725540 56.505383,104.786484 
	C51.287449,104.846527 53.314999,110.762489 48.721886,111.021606 
	C49.909824,107.069496 50.977898,103.516151 52.397057,99.576309 
	C53.134392,99.096512 53.520641,99.003220 53.891327,98.885681 
	C53.875755,98.861450 53.836422,98.819359 53.980949,99.227310 
	C53.514896,104.642288 56.944027,102.544151 59.523663,102.787682 
	C59.385811,101.874695 59.138412,101.245117 59.246197,100.683723 
	C59.369137,100.043365 59.808563,99.463776 60.110455,98.857773 
z"/>
<path fill="#0A0A0A" opacity="1.000000" stroke="none" 
	d="
M70.375656,106.530060 
	C71.181213,107.915543 71.969292,108.863235 72.795143,109.856346 
	C69.345673,110.743446 68.223259,110.139709 67.956650,107.054428 
	C67.771790,104.915138 68.139984,102.714897 67.836967,100.602737 
	C67.542038,98.546944 66.707275,96.568596 66.029503,94.286781 
	C66.709068,93.267052 67.795982,91.636070 69.164597,89.582382 
	C73.068832,94.968582 69.053528,100.791954 70.375656,106.530060 
z"/>
<path fill="#484848" opacity="1.000000" stroke="none" 
	d="
M78.659203,88.518448 
	C78.887627,96.250938 78.887627,103.576630 78.887627,110.902321 
	C78.421181,110.972511 77.954742,111.042702 77.488297,111.112900 
	C77.039284,110.429443 76.211906,109.752350 76.200279,109.061539 
	C76.094086,102.749184 76.058777,96.432571 76.225288,90.123070 
	C76.243477,89.433678 77.661842,88.781227 78.659203,88.518448 
z"/>
<path fill="#434343" opacity="1.000000" stroke="none" 
	d="
M142.996185,94.146851 
	C144.058929,94.092064 145.256104,93.697113 146.156601,94.052948 
	C148.061417,94.805656 151.211502,95.760170 151.375671,96.968239 
	C151.995529,101.530067 151.624725,106.226517 151.624725,110.872574 
	C150.989471,110.920235 150.354233,110.967888 149.718979,111.015541 
	C149.577148,107.691742 149.486893,104.364655 149.275253,101.045303 
	C149.135162,98.848190 149.734848,95.952225 145.222137,96.499443 
	C144.066727,95.647110 143.531464,94.896980 142.996185,94.146851 
z"/>
<path fill="#3E3E3E" opacity="1.000000" stroke="none" 
	d="
M142.572327,94.020416 
	C143.531464,94.896980 144.066727,95.647110 144.775421,96.633675 
	C144.560318,99.935181 144.155655,102.998337 143.789749,106.066101 
	C143.593826,107.708862 143.464600,109.359581 142.418259,110.967415 
	C141.067459,105.262878 139.869888,99.612297 142.572327,94.020416 
z"/>
<path fill="#1B1B1B" opacity="1.000000" stroke="none" 
	d="
M132.867386,108.629410 
	C136.915710,103.098366 135.689590,97.229988 129.844299,96.090164 
	C129.458206,95.521683 129.490921,95.028191 130.202927,94.608688 
	C131.251816,94.480881 131.621429,94.279083 131.991028,94.077286 
	C138.742249,96.529633 139.708893,105.125427 133.394623,109.821655 
	C132.946411,109.176620 132.906891,108.903015 132.867386,108.629410 
z"/>
<path fill="#CCCCCC" opacity="1.000000" stroke="none" 
	d="
M60.068016,98.874008 
	C59.808563,99.463776 59.369137,100.043365 59.246197,100.683723 
	C59.138412,101.245117 59.385811,101.874695 59.523663,102.787682 
	C56.944027,102.544151 53.514896,104.642288 54.129433,99.286865 
	C54.227882,98.892982 54.322369,98.847488 54.416855,98.801987 
	C54.356388,98.771065 54.280777,98.700546 54.238358,98.716766 
	C54.120491,98.761856 54.016418,98.843018 53.906898,98.909927 
	C53.520641,99.003220 53.134392,99.096512 52.448700,99.211952 
	C52.542858,98.225868 52.936462,97.217636 54.040375,96.198441 
	C55.422619,95.459724 56.094559,94.731964 56.738365,94.034683 
	C57.893589,95.732002 58.990822,97.344116 60.088055,98.956238 
	C60.088055,98.956238 60.025578,98.890244 60.068016,98.874008 
z"/>
<path fill="#171717" opacity="1.000000" stroke="none" 
	d="
M132.494431,108.655807 
	C132.906891,108.903015 132.946411,109.176620 133.040985,109.861229 
	C128.591721,110.995201 125.702606,109.079941 124.950905,104.872612 
	C123.912102,99.058281 125.416710,95.848129 129.557541,95.474960 
	C124.782639,101.279778 125.988564,107.226357 132.494431,108.655807 
z"/>
<path fill="#222222" opacity="1.000000" stroke="none" 
	d="
M60.137047,98.634857 
	C58.990822,97.344116 57.893589,95.732002 56.738365,94.034683 
	C56.094559,94.731964 55.422619,95.459724 54.384155,96.092255 
	C54.522861,93.518127 55.028095,91.039215 55.533325,88.560303 
	C56.239391,88.579666 56.945457,88.599037 57.651524,88.618401 
	C58.496361,91.850098 59.341198,95.081787 60.137047,98.634857 
z"/>
<path fill="#51558E" opacity="1.000000" stroke="none" 
	d="
M9.948966,111.336594 
	C10.317291,112.841156 10.488552,114.627457 10.419064,116.671066 
	C10.036178,115.158348 9.894040,113.388344 9.948966,111.336594 
z"/>
<path fill="#52558F" opacity="1.000000" stroke="none" 
	d="
M16.631847,70.282143 
	C17.677322,70.003357 18.657305,70.032578 20.006067,70.096344 
	C19.669275,71.028625 18.963699,71.926361 17.880421,73.304665 
	C17.318424,72.143730 16.942390,71.366936 16.631847,70.282143 
z"/>
<path fill="#51558E" opacity="1.000000" stroke="none" 
	d="
M14.300880,104.604759 
	C14.150970,104.950439 13.850141,104.964386 13.095962,104.977341 
	C13.145061,104.741905 13.647511,104.507469 14.300880,104.604759 
z"/>
<path fill="#171717" opacity="1.000000" stroke="none" 
	d="
M131.691406,93.979530 
	C131.621429,94.279083 131.251816,94.480881 130.595779,94.500465 
	C130.670166,94.172760 131.030975,94.027267 131.691406,93.979530 
z"/>
<path fill="#2B2B2B" opacity="1.000000" stroke="none" 
	d="
M53.891327,98.885689 
	C54.016418,98.843018 54.120491,98.761856 54.238358,98.716766 
	C54.280777,98.700546 54.356388,98.771065 54.416855,98.801987 
	C54.322369,98.847488 54.227882,98.892982 53.984909,98.878922 
	C53.836422,98.819359 53.875755,98.861450 53.891327,98.885689 
z"/>
</svg>