<?xml version="1.0" encoding="UTF-8"?>
<svg xmlns="http://www.w3.org/2000/svg" xmlns:xlink="http://www.w3.org/1999/xlink" viewBox="0 0 96 96" width="70px" height="59px">
<g id="surface57121242">
<path style=" stroke:none;fill-rule:nonzero;fill:rgb(0%,0%,0%);fill-opacity:1;" d="M 47.792969 12 C 47.152344 12 46.492188 12.359375 46.0625 13.089844 C 30.378906 38.933594 44.945312 60.070312 54.535156 79.878906 C 54.867188 80.542969 55.535156 81 56.285156 81 L 79.054688 81 C 80.503906 81 81.453125 79.417969 80.78125 78.0625 C 80.78125 78.0625 50.160156 14.640625 49.40625 13.058594 C 49.058594 12.359375 48.433594 12 47.792969 12 Z M 47.648438 23.230469 C 54.007812 36.414062 66.9375 63.191406 72.636719 75 L 58.820312 75 C 57.953125 73.257812 57.054688 71.503906 56.152344 69.746094 C 48.355469 54.5625 40.945312 40.128906 47.648438 23.230469 Z M 30.949219 42 C 30.269531 42 29.621094 42.378906 29.246094 43.164062 L 12.210938 78.011719 C 11.546875 79.402344 12.558594 81 14.035156 81 L 37.800781 81 C 38.550781 81 39.210938 80.53125 39.523438 79.84375 C 44.660156 69.039062 41.570312 52.613281 32.597656 42.785156 C 32.117188 42.269531 31.523438 42 30.949219 42 Z M 31.710938 51.78125 C 35.726562 58.902344 37.105469 68.085938 34.96875 75 L 20.363281 75 Z M 31.710938 51.78125 "/>
</g>
</svg>
