<svg version="1.1" id="Layer_1" xmlns="http://www.w3.org/2000/svg" xmlns:xlink="http://www.w3.org/1999/xlink" x="0px" y="0px"
	 width="140px" height="79px" viewBox="0 0 200 99" enable-background="new 0 0 200 59" xml:space="preserve" transform="translate(-20,0)">
<path fill="#FFFFFF" opacity="1.000000" stroke="none" 
	d="
M139.000000,60.000000 
	C92.666679,60.000000 46.833355,60.000000 1.000025,60.000000 
	C1.000016,40.333347 1.000016,20.666698 1.000008,1.000035 
	C67.666634,1.000023 134.333267,1.000023 200.999939,1.000012 
	C200.999954,20.666632 200.999954,40.333263 200.999969,59.999947 
	C180.500000,60.000000 160.000000,60.000000 139.000000,60.000000 
M114.805061,35.265560 
	C112.194427,34.870853 109.583786,34.476151 107.050461,33.145058 
	C107.051620,29.993774 107.207314,26.830408 106.962425,23.698366 
	C106.886154,22.722939 105.725945,21.832266 105.061951,20.902790 
	C104.413010,21.861195 103.246155,22.797186 103.203545,23.781830 
	C103.004341,28.384691 103.115135,33.000969 103.115135,38.294411 
	C106.879189,38.294411 110.148117,38.404770 113.395744,38.191181 
	C113.970421,38.153389 114.456276,36.765045 114.805061,35.265560 
M43.042973,34.714645 
	C46.534340,34.769066 50.091278,35.236977 53.488586,34.698246 
	C55.114254,34.440460 56.437386,32.274807 57.897541,30.973261 
	C56.435486,29.686602 55.112499,27.557657 53.482441,27.288519 
	C50.082878,26.727224 46.521019,27.148903 43.000469,26.385162 
	C42.967911,25.864788 42.935356,25.344412 43.257462,24.241899 
	C47.177231,19.943958 47.133976,19.737383 41.145702,15.614177 
	C37.804146,18.792616 34.390507,22.039619 30.901031,25.358757 
	C27.125040,21.759697 23.809898,18.599892 20.542339,15.485442 
	C18.358978,17.147369 16.691456,18.416653 13.521069,20.829884 
	C18.386189,24.473751 22.104059,27.258356 27.228062,31.096123 
	C22.192646,34.822773 18.460178,37.585129 14.252852,40.698921 
	C16.841202,43.588932 18.310976,45.230003 20.786413,47.993942 
	C23.736969,44.465225 25.924753,41.957142 27.988930,39.351154 
	C30.283575,36.454201 32.293678,36.839584 33.346615,39.680313 
	C29.400015,39.859585 27.209591,41.847557 27.107733,45.866261 
	C27.044588,48.357559 26.646008,50.973083 27.261482,53.304932 
	C27.716156,55.027554 29.564772,56.382256 30.792343,57.900875 
	C32.157845,56.332195 34.541519,54.854477 34.691357,53.177197 
	C35.086338,48.755898 34.511311,44.247936 34.964180,40.317894 
	C37.077812,42.329792 39.191441,44.341690 41.921696,46.940533 
	C43.696781,45.148308 45.153271,43.677757 46.813900,42.001091 
	C44.816349,39.685589 43.334248,37.967583 42.015972,35.354519 
	C42.067844,35.056408 42.119717,34.758297 43.042973,34.714645 
M135.038879,35.566135 
	C138.738235,38.867077 143.338547,39.584583 145.491867,36.624287 
	C151.092422,28.924892 142.446365,28.527536 138.991425,25.176811 
	C140.804657,24.803526 142.105606,25.271793 143.394516,25.240740 
	C144.188049,25.221621 145.196869,24.601782 145.656219,23.938208 
	C145.918716,23.559031 145.402206,22.008638 145.014664,21.916296 
	C142.859222,21.402679 140.384476,20.437569 138.513550,21.076094 
	C136.956802,21.607389 135.164581,24.138397 135.166809,25.781342 
	C135.169006,27.381416 137.104202,29.227039 138.589691,30.498795 
	C139.789658,31.526119 141.583237,31.860043 143.113495,32.501564 
	C142.951218,33.077950 142.788940,33.654335 142.626663,34.230724 
	C141.155060,33.885513 139.691193,33.322128 138.209198,33.269485 
	C137.169113,33.232540 136.104294,33.891739 134.436844,34.973583 
	C132.689117,32.146996 130.914856,29.336353 129.202728,26.488365 
	C128.008820,24.502388 126.900070,22.465218 124.985619,19.102522 
	C122.065056,24.971008 119.763214,29.282858 117.802742,33.744694 
	C117.279167,34.936306 117.799416,36.586559 117.840439,38.026253 
	C118.929283,37.345409 119.941597,36.315048 121.122887,36.056358 
	C123.593941,35.515228 127.950386,34.419518 128.386902,35.235126 
	C131.280350,40.641293 133.009613,37.408318 135.038879,35.566135 
M196.582504,34.977577 
	C196.576294,31.154020 196.709641,27.321386 196.461990,23.513536 
	C196.402878,22.604719 195.072281,21.778597 194.326508,20.914434 
	C193.780212,21.775078 192.880844,22.589708 192.761444,23.505981 
	C192.515930,25.390018 192.687653,27.328426 192.687653,29.244457 
	C192.288528,29.401041 191.889420,29.557623 191.490295,29.714207 
	C189.654114,27.269470 187.910522,24.745676 185.929214,22.424820 
	C185.275772,21.659397 184.024765,21.124905 183.014191,21.068069 
	C182.548538,21.041880 181.587433,22.406595 181.563980,23.162754 
	C181.430054,27.479961 181.411484,31.808542 181.615738,36.120850 
	C181.650146,36.847282 182.961777,37.513222 183.683289,38.207108 
	C184.233978,37.510941 185.179123,36.857296 185.259628,36.110455 
	C185.479691,34.068970 185.335373,31.988211 185.335373,29.923006 
	C188.371521,31.970165 190.144928,34.491077 192.159698,36.801525 
	C194.001266,38.913353 195.786255,39.352642 196.582504,34.977577 
M176.836212,36.327007 
	C181.257660,30.351341 180.241043,23.717731 174.459351,21.254986 
	C170.579056,19.602140 167.240707,20.702705 164.603210,23.793074 
	C161.902924,26.957003 161.999283,32.230804 164.616226,35.359917 
	C167.537552,38.852982 171.249527,39.315380 176.836212,36.327007 
M72.201996,33.675365 
	C72.245636,35.103600 72.289276,36.531834 72.332916,37.960068 
	C73.265167,37.601719 74.467964,37.497906 75.084526,36.842552 
	C78.390678,33.328396 80.762421,33.393139 84.463287,37.141693 
	C85.028534,37.714230 86.277328,38.235935 86.871094,37.983635 
	C87.484650,37.722931 88.220451,36.250469 87.983017,35.719070 
	C85.674339,30.552111 83.172470,25.471474 80.725677,20.366228 
	C80.113556,20.404787 79.501427,20.443344 78.889305,20.481901 
	C76.780952,24.657232 74.672607,28.832563 72.201996,33.675365 
M159.702225,24.141586 
	C159.612915,20.109039 156.292267,20.066992 154.063721,20.684023 
	C152.094513,21.229250 149.721100,23.379116 149.247604,25.255001 
	C148.893341,26.658558 151.033737,29.001215 152.519760,30.461145 
	C153.691818,31.612633 155.559265,32.056316 157.117844,32.814365 
	C156.895020,33.363869 156.672195,33.913372 156.449371,34.462879 
	C154.315323,33.837440 152.181274,33.212002 150.047226,32.586563 
	C149.637299,32.807423 149.227386,33.028282 148.817474,33.249142 
	C149.620148,34.691692 150.068436,36.762981 151.294632,37.454124 
	C154.459641,39.238087 158.198837,39.205837 160.090744,35.800697 
	C164.104889,28.575876 156.541443,28.442318 152.878769,25.972933 
	C153.019928,25.570570 153.161102,25.168209 153.302261,24.765846 
	C155.295303,24.765846 157.288345,24.765846 159.702225,24.141586 
M5.112460,33.539627 
	C11.391472,36.513683 18.569267,35.437492 21.862597,30.917984 
	C18.877481,24.987131 13.338764,27.420696 8.770769,27.188227 
	C5.053930,26.999075 3.226682,28.964388 5.112460,33.539627 
M34.898533,16.840965 
	C34.877613,13.842134 35.152340,10.797997 34.702854,7.864840 
	C34.498280,6.529850 33.075062,4.878102 31.805490,4.372779 
	C30.830009,3.984511 28.769592,4.781846 27.989895,5.717280 
	C25.118851,9.161778 27.492779,19.603310 31.808867,21.987381 
	C32.801151,20.578434 33.823399,19.126938 34.898533,16.840965 
M95.239159,28.745428 
	C95.319069,27.303493 95.398987,25.861557 95.480522,24.390467 
	C96.535042,24.282919 97.233147,24.338171 97.835373,24.123926 
	C99.081718,23.680542 100.277069,23.093782 101.493385,22.565983 
	C100.181725,21.964832 98.903557,20.955574 97.551674,20.844650 
	C94.414352,20.587231 91.230202,20.612059 88.088951,20.845015 
	C86.963692,20.928461 85.907188,21.939035 84.819305,22.526457 
	C84.985207,22.920671 85.151108,23.314886 85.317009,23.709101 
	C87.200768,23.992834 89.084526,24.276567 91.269463,24.605665 
	C91.269463,28.479977 91.155121,32.124199 91.353348,35.751335 
	C91.400352,36.611580 92.495514,37.414543 93.108536,38.243855 
	C93.817505,37.374313 94.980858,36.580017 95.139938,35.619415 
	C95.461494,33.677624 95.237976,31.645571 95.239159,28.745428 
z"/>
<path fill="#FE9A74" opacity="1.000000" stroke="none" 
	d="
M41.852146,36.249577 
	C43.334248,37.967583 44.816349,39.685589 46.813900,42.001091 
	C45.153271,43.677757 43.696781,45.148308 41.921696,46.940533 
	C39.191441,44.341690 37.077812,42.329792 34.635666,40.057625 
	C34.307148,39.797359 34.229649,39.680099 34.229649,39.680099 
	C32.293678,36.839584 30.283575,36.454201 27.988930,39.351154 
	C25.924753,41.957142 23.736969,44.465225 20.786413,47.993942 
	C18.310976,45.230003 16.841202,43.588932 14.252852,40.698921 
	C18.460178,37.585129 22.192646,34.822773 27.228062,31.096123 
	C22.104059,27.258356 18.386189,24.473751 13.521069,20.829884 
	C16.691456,18.416653 18.358978,17.147369 20.542339,15.485442 
	C23.809898,18.599892 27.125040,21.759697 30.901031,25.358757 
	C34.390507,22.039619 37.804146,18.792616 41.145702,15.614177 
	C47.133976,19.737383 47.177231,19.943958 42.782169,24.694710 
	C40.022266,26.693460 37.737656,28.239403 35.114986,30.014101 
	C38.521851,33.167271 40.186996,34.708424 41.852146,36.249577 
z"/>
<path fill="#161616" opacity="1.000000" stroke="none" 
	d="
M196.575119,35.414963 
	C195.786255,39.352642 194.001266,38.913353 192.159698,36.801525 
	C190.144928,34.491077 188.371521,31.970165 185.335373,29.923006 
	C185.335373,31.988211 185.479691,34.068970 185.259628,36.110455 
	C185.179123,36.857296 184.233978,37.510941 183.683289,38.207111 
	C182.961777,37.513222 181.650146,36.847282 181.615738,36.120850 
	C181.411484,31.808542 181.430054,27.479961 181.563980,23.162754 
	C181.587433,22.406595 182.548538,21.041880 183.014191,21.068069 
	C184.024765,21.124905 185.275772,21.659397 185.929214,22.424820 
	C187.910522,24.745676 189.654114,27.269470 191.490295,29.714207 
	C191.889420,29.557623 192.288528,29.401041 192.687653,29.244457 
	C192.687653,27.328426 192.515930,25.390018 192.761444,23.505981 
	C192.880844,22.589708 193.780212,21.775078 194.326508,20.914436 
	C195.072281,21.778597 196.402878,22.604719 196.461990,23.513536 
	C196.709641,27.321386 196.576294,31.154020 196.575119,35.414963 
z"/>
<path fill="#1A1A1A" opacity="1.000000" stroke="none" 
	d="
M176.557877,36.569908 
	C171.249527,39.315380 167.537552,38.852982 164.616226,35.359917 
	C161.999283,32.230804 161.902924,26.957003 164.603210,23.793074 
	C167.240707,20.702705 170.579056,19.602140 174.459351,21.254986 
	C180.241043,23.717731 181.257660,30.351341 176.557877,36.569908 
M166.676804,28.680490 
	C166.489746,31.710224 167.548508,34.245277 170.829956,34.032104 
	C172.469376,33.925594 174.944168,32.185829 175.300766,30.751970 
	C175.685654,29.204449 174.539993,26.455559 173.169952,25.467056 
	C170.504944,23.544203 168.253891,25.084532 166.676804,28.680490 
z"/>
<path fill="#191919" opacity="1.000000" stroke="none" 
	d="
M135.039688,34.847412 
	C133.009613,37.408318 131.280350,40.641293 128.386902,35.235126 
	C127.950386,34.419518 123.593941,35.515228 121.122887,36.056358 
	C119.941597,36.315048 118.929283,37.345409 117.840439,38.026253 
	C117.799416,36.586559 117.279167,34.936306 117.802742,33.744694 
	C119.763214,29.282858 122.065056,24.971008 124.985619,19.102522 
	C126.900070,22.465218 128.008820,24.502388 129.202728,26.488365 
	C130.914856,29.336353 132.689117,32.146996 134.721741,34.758316 
	C135.006638,34.543053 135.039688,34.847412 135.039688,34.847412 
z"/>
<path fill="#1A1A1A" opacity="1.000000" stroke="none" 
	d="
M72.383133,33.341629 
	C74.672607,28.832563 76.780952,24.657232 78.889305,20.481901 
	C79.501427,20.443344 80.113556,20.404787 80.725677,20.366228 
	C83.172470,25.471474 85.674339,30.552111 87.983017,35.719070 
	C88.220451,36.250469 87.484650,37.722931 86.871094,37.983635 
	C86.277328,38.235935 85.028534,37.714230 84.463287,37.141693 
	C80.762421,33.393139 78.390678,33.328396 75.084526,36.842552 
	C74.467964,37.497906 73.265167,37.601719 72.332916,37.960068 
	C72.289276,36.531834 72.245636,35.103600 72.383133,33.341629 
z"/>
<path fill="#1F1F1F" opacity="1.000000" stroke="none" 
	d="
M159.491806,24.453716 
	C157.288345,24.765846 155.295303,24.765846 153.302261,24.765846 
	C153.161102,25.168209 153.019928,25.570570 152.878769,25.972933 
	C156.541443,28.442318 164.104889,28.575876 160.090744,35.800697 
	C158.198837,39.205837 154.459641,39.238087 151.294632,37.454124 
	C150.068436,36.762981 149.620148,34.691692 148.817474,33.249142 
	C149.227386,33.028282 149.637299,32.807423 150.047226,32.586563 
	C152.181274,33.212002 154.315323,33.837440 156.449371,34.462879 
	C156.672195,33.913372 156.895020,33.363869 157.117844,32.814365 
	C155.559265,32.056316 153.691818,31.612633 152.519760,30.461145 
	C151.033737,29.001215 148.893341,26.658558 149.247604,25.255001 
	C149.721100,23.379116 152.094513,21.229250 154.063721,20.684023 
	C156.292267,20.066992 159.612915,20.109039 159.491806,24.453716 
z"/>
<path fill="#1F1F1F" opacity="1.000000" stroke="none" 
	d="
M135.039276,35.206772 
	C135.039688,34.847412 135.006638,34.543053 135.028580,34.391560 
	C136.104294,33.891739 137.169113,33.232540 138.209198,33.269485 
	C139.691193,33.322128 141.155060,33.885513 142.626663,34.230724 
	C142.788940,33.654335 142.951218,33.077950 143.113495,32.501564 
	C141.583237,31.860043 139.789658,31.526119 138.589691,30.498795 
	C137.104202,29.227039 135.169006,27.381416 135.166809,25.781342 
	C135.164581,24.138397 136.956802,21.607389 138.513550,21.076094 
	C140.384476,20.437569 142.859222,21.402679 145.014664,21.916296 
	C145.402206,22.008638 145.918716,23.559031 145.656219,23.938208 
	C145.196869,24.601782 144.188049,25.221621 143.394516,25.240740 
	C142.105606,25.271793 140.804657,24.803526 138.991425,25.176811 
	C142.446365,28.527536 151.092422,28.924892 145.491867,36.624287 
	C143.338547,39.584583 138.738235,38.867077 135.039276,35.206772 
z"/>
<path fill="#FE9B75" opacity="1.000000" stroke="none" 
	d="
M33.788132,39.680206 
	C34.229649,39.680099 34.307148,39.797359 34.314842,39.785923 
	C34.511311,44.247936 35.086338,48.755898 34.691357,53.177197 
	C34.541519,54.854477 32.157845,56.332195 30.792343,57.900875 
	C29.564772,56.382256 27.716156,55.027554 27.261482,53.304932 
	C26.646008,50.973083 27.044588,48.357559 27.107733,45.866261 
	C27.209591,41.847557 29.400015,39.859585 33.788132,39.680206 
z"/>
<path fill="#FE9A75" opacity="1.000000" stroke="none" 
	d="
M43.025841,27.166714 
	C46.521019,27.148903 50.082878,26.727224 53.482441,27.288519 
	C55.112499,27.557657 56.435486,29.686602 57.897541,30.973259 
	C56.437386,32.274807 55.114254,34.440460 53.488586,34.698246 
	C50.091278,35.236977 46.534340,34.769066 42.507301,34.300800 
	C38.485985,31.044954 41.382557,29.204136 43.025841,27.166714 
z"/>
<path fill="#FE9B76" opacity="1.000000" stroke="none" 
	d="
M4.868384,33.213974 
	C3.226682,28.964388 5.053930,26.999075 8.770769,27.188227 
	C13.338764,27.420696 18.877481,24.987131 21.862597,30.917984 
	C18.569267,35.437492 11.391472,36.513683 4.868384,33.213974 
z"/>
<path fill="#FE9B76" opacity="1.000000" stroke="none" 
	d="
M34.872089,17.258205 
	C33.823399,19.126938 32.801151,20.578434 31.808867,21.987381 
	C27.492779,19.603310 25.118851,9.161778 27.989895,5.717280 
	C28.769592,4.781846 30.830009,3.984511 31.805490,4.372779 
	C33.075062,4.878102 34.498280,6.529850 34.702854,7.864840 
	C35.152340,10.797997 34.877613,13.842134 34.872089,17.258205 
z"/>
<path fill="#1E1E1E" opacity="1.000000" stroke="none" 
	d="
M95.239197,29.198086 
	C95.237976,31.645571 95.461494,33.677624 95.139938,35.619415 
	C94.980858,36.580017 93.817505,37.374313 93.108536,38.243855 
	C92.495514,37.414543 91.400352,36.611580 91.353348,35.751335 
	C91.155121,32.124199 91.269463,28.479977 91.269463,24.605665 
	C89.084526,24.276567 87.200768,23.992834 85.317009,23.709101 
	C85.151108,23.314886 84.985207,22.920671 84.819305,22.526457 
	C85.907188,21.939035 86.963692,20.928461 88.088951,20.845015 
	C91.230202,20.612059 94.414352,20.587231 97.551674,20.844650 
	C98.903557,20.955574 100.181725,21.964832 101.493385,22.565983 
	C100.277069,23.093782 99.081718,23.680542 97.835373,24.123926 
	C97.233147,24.338171 96.535042,24.282919 95.480522,24.390467 
	C95.398987,25.861557 95.319069,27.303493 95.239197,29.198086 
z"/>
<path fill="#191919" opacity="1.000000" stroke="none" 
	d="
M114.983154,36.000366 
	C114.456276,36.765045 113.970421,38.153389 113.395744,38.191181 
	C110.148117,38.404770 106.879189,38.294411 103.115135,38.294411 
	C103.115135,33.000969 103.004341,28.384691 103.203545,23.781830 
	C103.246155,22.797186 104.413010,21.861195 105.061951,20.902792 
	C105.725945,21.832266 106.886154,22.722939 106.962425,23.698366 
	C107.207314,26.830408 107.051620,29.993774 107.105499,33.990913 
	C109.768074,35.224632 112.375610,35.612499 114.983154,36.000366 
z"/>
<path fill="#FFEDE6" opacity="1.000000" stroke="none" 
	d="
M43.013153,26.775938 
	C41.382557,29.204136 38.485985,31.044954 42.071609,34.173573 
	C42.119717,34.758297 42.067844,35.056408 41.934059,35.802048 
	C40.186996,34.708424 38.521851,33.167271 35.114986,30.014101 
	C37.737656,28.239403 40.022266,26.693460 42.604839,24.985779 
	C42.935356,25.344412 42.967911,25.864788 43.013153,26.775938 
z"/>
<path fill="#1D1D1D" opacity="1.000000" stroke="none" 
	d="
M114.894104,35.632965 
	C112.375610,35.612499 109.768074,35.224632 107.066841,34.459106 
	C109.583786,34.476151 112.194427,34.870853 114.894104,35.632965 
z"/>
<path fill="#EDEDED" opacity="1.000000" stroke="none" 
	d="
M166.787323,28.272093 
	C168.253891,25.084532 170.504944,23.544203 173.169952,25.467056 
	C174.539993,26.455559 175.685654,29.204449 175.300766,30.751970 
	C174.944168,32.185829 172.469376,33.925594 170.829956,34.032104 
	C167.548508,34.245277 166.489746,31.710224 166.787323,28.272093 
z"/>
</svg>